<svg width="14" height="17" viewBox="0 0 14 17" fill="none" xmlns="http://www.w3.org/2000/svg">
<path fill-rule="evenodd" clip-rule="evenodd" d="M9.35474 0.320917C9.59229 -0.018348 10.0599 -0.100799 10.3992 0.136757C10.7384 0.374313 10.8209 0.841919 10.5833 1.18118L9.36785 2.91707C10.1573 3.16931 10.6952 3.44138 10.6952 3.44138C10.6952 3.44138 9.3805 5.70286 7.15057 5.70286C4.92063 5.70286 3.33609 3.5951 3.33609 3.5951C3.33609 3.5951 3.89793 3.23654 4.73079 2.92901L3.40733 1.35176C3.1411 1.03449 3.18249 0.561477 3.49976 0.295256C3.81703 0.0290351 4.29004 0.0704182 4.55626 0.387688L6.24914 2.40519C6.28276 2.44525 6.31148 2.4878 6.33535 2.5321C6.5344 2.50893 6.73737 2.49593 6.94225 2.49593C7.22964 2.49593 7.51669 2.51793 7.79681 2.55523C7.81086 2.52898 7.82663 2.50328 7.84413 2.47828L9.35474 0.320917ZM3.7956 5.80995C3.20052 5.38495 2.30007 4.27568 2.30007 4.27568C2.30007 4.27568 0 6.09834 0 9.96309C0 13.8278 3.97643 16.1538 3.97643 16.1538C3.97643 16.1538 5.8763 14.2352 6.3427 11.803C6.8091 9.3708 5.65279 6.67014 5.65279 6.67014C5.65279 6.67014 4.39068 6.23494 3.7956 5.80995ZM10.2044 5.80995C10.7995 5.38495 11.6999 4.27568 11.6999 4.27568C11.6999 4.27568 14 6.09834 14 9.96309C14 13.8278 10.0236 16.1538 10.0236 16.1538C10.0236 16.1538 8.1237 14.2352 7.6573 11.803C7.1909 9.3708 8.34721 6.67014 8.34721 6.67014C8.34721 6.67014 9.60932 6.23494 10.2044 5.80995Z" fill="white"/>
</svg>
