<svg width="11" height="14" viewBox="0 0 11 14" fill="none" xmlns="http://www.w3.org/2000/svg">
<path fill-rule="evenodd" clip-rule="evenodd" d="M11 7C11 10.866 7.86599 14 4 14C2.8401 14 1.74609 13.7179 0.782844 13.2185C1.69152 13.1825 2.54267 12.8826 3.28148 12.3826C3.54745 12.4233 3.81987 12.4444 4.09722 12.4444C7.05041 12.4444 9.44444 10.0504 9.44444 7.09722C9.44444 4.14403 7.05041 1.75 4.09722 1.75C3.89908 1.75 3.70346 1.76078 3.5109 1.78178C2.72115 1.18346 1.78714 0.821325 0.782847 0.781457C1.74609 0.282109 2.8401 0 4 0C7.86599 0 11 3.13401 11 7Z" fill="white"/>
</svg>
