<svg width="14" height="16" viewBox="0 0 14 16" fill="none" xmlns="http://www.w3.org/2000/svg">
<path fill-rule="evenodd" clip-rule="evenodd" d="M7.78042 7.96505C7.88884 7.8989 7.98085 7.76033 8.05505 7.60633C9.03147 8.00542 9.71761 8.9484 9.71761 10.0481C9.71761 11.5091 8.50668 12.6934 7.01294 12.6934C6.39975 12.6934 5.83423 12.4938 5.38056 12.1575C5.23175 12.087 5.10931 12.0193 5.00911 11.9639C4.85371 11.878 4.75181 11.8217 4.68799 11.8305C4.50144 11.8562 4.55562 12.0278 4.60482 12.1837C4.63825 12.2896 4.66939 12.3883 4.62119 12.429C4.57073 12.4716 4.40736 12.3158 4.21646 12.1338C3.9566 11.886 3.64571 11.5896 3.49913 11.6787C3.38321 11.7491 3.49574 11.94 3.63348 12.1738L3.64371 12.1911C3.70191 12.29 3.76933 12.3905 3.83087 12.4824C3.95595 12.669 4.05672 12.8193 4.00629 12.8448C3.94537 12.8755 3.52082 12.589 3.16302 12.1911C3.02492 12.0376 2.89115 11.8711 2.76685 11.7165C2.49476 11.3779 2.26808 11.0959 2.14083 11.1293C1.98776 11.1695 2.10355 11.4852 2.2737 11.7891C2.35326 11.9312 2.44686 12.0759 2.52791 12.2011C2.65393 12.396 2.74959 12.5438 2.71488 12.562C2.66808 12.5865 2.25617 12.1848 1.97641 11.6787C1.81024 11.378 1.67071 11.0458 1.55774 10.7768C1.43524 10.4851 1.34399 10.2678 1.2839 10.2459C1.07513 10.1699 1.07513 10.5956 1.15886 11.21C1.16978 11.2901 1.18605 11.3741 1.20607 11.4597C2.01807 14.087 4.51248 16 7.46371 16C11.0736 16 14 13.1379 14 9.60723C14 6.24688 11.3491 3.49209 7.98098 3.2342C7.98523 3.07589 8.06785 2.76197 8.06785 2.76197C8.06785 2.76197 8.66245 1.32335 8.69387 1.01594C8.69596 0.995532 8.69843 0.973361 8.70106 0.949747C8.73812 0.61759 8.80701 0 8.2757 0C7.99195 0 7.86 0.211082 7.70909 0.452497C7.65115 0.545176 7.59043 0.642326 7.51724 0.733719C6.99012 1.39199 6.10372 2.21403 5.60113 2.65197C4.53882 3.57764 3.49657 4.33839 2.88871 4.78207L2.88871 4.78207L2.88869 4.78208C2.61221 4.98389 2.42561 5.12009 2.36787 5.17638C1.93266 5.60063 0.372285 8.4152 0.372285 8.4152C0.372285 8.4152 -0.132326 9.3182 0.0470341 9.50134C0.226394 9.68447 0.658917 9.6425 0.658917 9.6425C0.658917 9.6425 6.46956 8.30948 6.98979 8.20433C7.12985 8.17603 7.22872 8.1597 7.30464 8.14716C7.51073 8.11312 7.54773 8.10701 7.78042 7.96505ZM3.67207 6.25199C3.36018 6.54847 2.84289 7.25614 2.84289 7.25614C2.84289 7.25614 3.80427 7.31536 4.33375 6.81206C4.86323 6.30876 4.74191 5.45103 4.74191 5.45103C4.74191 5.45103 3.98397 5.95552 3.67207 6.25199Z" fill="white"/>
</svg>
