<svg width="15" height="15" viewBox="0 0 15 15" fill="none" xmlns="http://www.w3.org/2000/svg">
<path fill-rule="evenodd" clip-rule="evenodd" d="M3.27011 11.9239L5.34481 11.3223L7.28716 14.8738C7.37918 15.042 7.62082 15.042 7.71284 14.8738L9.65519 11.3223L11.7299 11.9239C11.9141 11.9773 12.0845 11.806 12.0301 11.6221L11.4306 9.59596L14.8738 7.71284C15.042 7.62082 15.042 7.37918 14.8738 7.28716L11.3991 5.38682L12.0301 3.25429C12.0845 3.0704 11.9141 2.89906 11.7299 2.95247L9.59683 3.57097L7.71284 0.126232C7.62082 -0.0420164 7.37918 -0.0420167 7.28716 0.126231L5.40317 3.57097L3.27011 2.95247C3.08593 2.89906 2.91553 3.0704 2.96993 3.25429L3.60086 5.38682L0.126232 7.28716C-0.0420161 7.37918 -0.0420164 7.62082 0.126232 7.71284L3.56938 9.59596L2.96993 11.6221C2.91553 11.806 3.08593 11.9773 3.27011 11.9239ZM5.16489 7.73318L6.54997 8.4907L7.3075 9.87579C7.39952 10.044 7.64116 10.044 7.73318 9.87579L8.4907 8.4907L9.87579 7.73318C10.044 7.64116 10.044 7.39952 9.87579 7.3075L8.4907 6.54997L7.73318 5.16489C7.64116 4.99664 7.39952 4.99664 7.3075 5.16489L6.54997 6.54997L5.16489 7.3075C4.99664 7.39952 4.99664 7.64116 5.16489 7.73318Z" fill="white"/>
</svg>
