<svg width="14" height="15" viewBox="0 0 14 15" fill="none" xmlns="http://www.w3.org/2000/svg">
<path fill-rule="evenodd" clip-rule="evenodd" d="M2.08692 1.24706C2.26844 0.530323 2.91775 0 3.69091 0C4.27328 0 4.78537 0.30088 5.08022 0.75567C5.12571 0.751915 5.17172 0.75 5.21818 0.75C5.3255 0.75 5.43043 0.760217 5.53205 0.779732C5.83423 0.453909 6.26603 0.25 6.74545 0.25C7.42674 0.25 8.01185 0.661773 8.26548 1.25002L8.27273 1.25C8.39038 1.25 8.50516 1.26228 8.61587 1.28563C8.88082 1.10536 9.20083 1 9.54545 1C10.2607 1 10.8699 1.4538 11.1009 2.08918C11.2263 2.1322 11.3448 2.18985 11.4545 2.2601C11.7117 2.09545 12.0174 2 12.3455 2C13.2592 2 14 2.74077 14 3.65455V8.625V8.70564C14 8.73601 13.9992 8.76626 13.9975 8.79636C13.8978 12.238 10.8031 15 7 15C3.13401 15 0 12.1458 0 8.625C0 6.9255 0.730223 5.38133 1.92052 4.23851C1.91753 5.89651 1.9455 7.61111 2.07453 7.58168C2.41997 7.50292 2.15006 2.36866 2.08692 1.24706Z" fill="white"/>
</svg>
