<svg width="12" height="15" viewBox="0 0 12 15" fill="none" xmlns="http://www.w3.org/2000/svg">
<path fill-rule="evenodd" clip-rule="evenodd" d="M8.4855 11.44C8.66854 10.7708 8.31326 9.39488 8.31326 9.39488C8.31326 9.39488 8.05559 10.5157 7.65294 10.93C7.30945 11.2834 6.88862 11.5285 6.28505 11.5929C6.77851 11.3532 7.11789 10.8534 7.11789 10.2757C7.11789 9.46487 6.44918 8.80752 5.62429 8.80752C4.7994 8.80752 4.13069 9.46487 4.13069 10.2757C4.13069 10.4972 4.18058 10.7072 4.2699 10.8955C3.75397 10.4845 3.67283 9.82554 3.67283 9.82554C3.67283 9.82554 3.09673 12.2174 4.68417 13.3426C6.2716 14.4678 9.38129 13.5006 9.38129 13.5006C9.38129 13.5006 4.93112 16.6319 1.6335 13.2239C-1.20715 10.2882 0.892078 6.42324 0.892078 6.42324C0.892078 6.42324 0.801417 6.78178 0.801417 7.19799C0.801417 7.6142 1.02708 7.93087 1.02708 7.93087C1.02708 7.93087 1.70021 6.51202 2.22408 5.935C2.71988 5.38892 3.34139 4.946 3.8782 4.56345C4.29144 4.26896 4.65448 4.01024 4.87133 3.76777C6.06559 2.43238 5.33332 0 5.33332 0C5.33332 0 6.67958 1.18684 7.05542 2.71965C7.19869 3.30394 7.10653 3.96874 7.02411 4.56323C6.89031 5.52832 6.7822 6.30814 7.74871 6.25754C9.31058 6.17577 7.95337 3.76777 7.95337 3.76777C7.95337 3.76777 11.4963 5.6299 11.2316 8.88668C10.9669 12.1435 7.35901 12.8839 7.35901 12.8839C7.35901 12.8839 8.30245 12.1093 8.4855 11.44Z" fill="white"/>
</svg>
