<svg width="14" height="14" viewBox="0 0 14 14" fill="none" xmlns="http://www.w3.org/2000/svg">
<path fill-rule="evenodd" clip-rule="evenodd" d="M7 14C10.866 14 14 10.866 14 7C14 3.13401 10.866 0 7 0C3.13401 0 0 3.13401 0 7C0 10.866 3.13401 14 7 14ZM4.92188 7.07211C5.52594 7.07211 6.01562 6.59237 6.01562 6.00058H5.33938C4.81876 6.00058 4.3945 5.58804 4.37565 5.07203C4.04837 5.25721 3.82812 5.6037 3.82812 6.00058C3.82812 6.59237 4.31781 7.07211 4.92188 7.07211ZM7.76562 6.00058C7.76562 6.59237 8.25531 7.07211 8.85938 7.07211C9.46344 7.07211 9.95312 6.59237 9.95312 6.00058C9.95312 5.6037 9.73288 5.25721 9.4056 5.07203C9.38675 5.58804 8.96249 6.00058 8.44187 6.00058H7.76562Z" fill="white"/>
</svg>
