<svg width="15" height="15" viewBox="0 0 15 15" fill="none" xmlns="http://www.w3.org/2000/svg">
<path fill-rule="evenodd" clip-rule="evenodd" d="M3.19589 13.63C5.66396 15.1964 9.35749 14.5614 11.9594 11.9594C14.8884 9.03051 15.325 4.7184 12.9347 2.32807C10.5443 -0.0622565 6.23223 0.374369 3.3033 3.3033C0.374365 6.23223 -0.0622602 10.5443 2.32807 12.9347C2.37333 12.9799 2.41928 13.0242 2.46589 13.0674L4.44488 10.6256L4.44488 7.92991L5.10368 9.95689L6.52486 8.35476L6.24748 6.51892L7.03542 7.63082L9.07586 5.34212L7.64137 7.92991L9.07586 8.35476L7.26174 8.75216L5.66804 10.3749L8.17577 10.6256L5.10368 11.2888L3.19589 13.63Z" fill="white"/>
</svg>
