<svg width="17" height="11" viewBox="0 0 17 11" fill="none" xmlns="http://www.w3.org/2000/svg">
<path fill-rule="evenodd" clip-rule="evenodd" d="M4.36832 10.9572C4.3074 10.9572 4.2648 10.8969 4.28513 10.8395L8.07383 0.134024C8.10226 0.053696 8.17822 0 8.26343 0H12.122C12.2075 0 12.2837 0.0541251 12.3119 0.134911L15.9919 10.6898C16.0375 10.8206 15.9404 10.9572 15.802 10.9572H4.36832ZM1.19779 11C1.05739 11 0.960194 10.8598 1.00944 10.7283L3.74776 3.41771C3.77718 3.33917 3.85224 3.28713 3.93611 3.28713H6.02888C6.16834 3.28713 6.26547 3.42562 6.21798 3.55675L3.57009 10.8674C3.54126 10.947 3.46566 11 3.38099 11H1.19779Z" fill="white"/>
</svg>
