<svg width="17" height="17" viewBox="0 0 17 17" fill="none" xmlns="http://www.w3.org/2000/svg">
<path fill-rule="evenodd" clip-rule="evenodd" d="M12.653 1.33574L12.7051 5.91342L8.71237 7.8301L8.66314 3.5079L12.653 1.33574Z" fill="white"/>
<path fill-rule="evenodd" clip-rule="evenodd" d="M16.6554 8.54901L12.7029 10.8098L8.74808 8.54543L12.7009 6.46913L16.6554 8.54901Z" fill="white"/>
<path fill-rule="evenodd" clip-rule="evenodd" d="M8.04507 8.54901L4.09255 10.8098L0.137702 8.54543L4.09051 6.46913L8.04507 8.54901Z" fill="white"/>
<path fill-rule="evenodd" clip-rule="evenodd" d="M4.04813 1.31697L8.15055 3.34874L8.04566 7.77643L4.17221 5.85805L4.04813 1.31697Z" fill="white"/>
<path fill-rule="evenodd" clip-rule="evenodd" d="M12.7646 15.7118L8.6622 13.68L8.76708 9.25232L12.6405 11.1707L12.7646 15.7118Z" fill="white"/>
<path fill-rule="evenodd" clip-rule="evenodd" d="M4.18982 15.753L4.13769 11.1753L8.13041 9.25861L8.17963 13.5808L4.18982 15.753Z" fill="white"/>
</svg>
