<svg width="13" height="14" viewBox="0 0 13 14" fill="none" xmlns="http://www.w3.org/2000/svg">
<path fill-rule="evenodd" clip-rule="evenodd" d="M11.9745 11.6261C11.9745 11.6261 10.2092 13.042 6.69629 12.456C4.03109 12.0115 2.60961 9.07355 2.60961 7.49436C2.60961 3.75016 5.38079 2.89811 7.25429 2.89811C9.12779 2.89811 10.35 4.72467 10.35 6.1389C10.35 7.55312 9.34972 8.79008 7.79314 8.79008C6.23657 8.79008 5.77555 7.69728 5.77555 6.69261C5.77555 5.68794 6.58841 5.33397 7.32971 5.33397C8.07102 5.33397 8.32487 5.96687 8.32487 6.51083C8.32487 7.05479 7.90282 7.24958 7.55079 7.24958C7.19876 7.24958 7.16394 7.07199 7.02922 6.88535C6.89449 6.69872 7.20105 5.99226 6.69629 5.99226C6.19153 5.99226 6.09744 6.80442 6.09744 6.80442C6.09744 6.80442 6.28146 8.37212 7.79314 8.34506C9.30483 8.31799 10.022 7.14933 9.81356 5.99226C9.60515 4.83519 8.48223 3.60568 6.51145 3.85413C4.54068 4.10257 3.73602 6.09386 4.0907 8.22187C4.44538 10.3499 6.99472 11.5829 8.99916 11.1393C11.0036 10.6957 13 9.24454 13 5.56534C13 1.88614 9.81356 -0.325395 6.01401 0.0390779C2.21446 0.403551 -0.14413 3.72536 0.00684095 7.7166C0.157811 11.7078 3.94502 13.8816 7.14749 13.9936C10.35 14.1057 12.3132 12.2518 12.3132 12.2518C12.3132 12.2518 12.7547 11.8581 12.5816 11.5506C12.4085 11.2432 11.9745 11.6261 11.9745 11.6261Z" fill="white"/>
</svg>
