<svg width="14" height="11" viewBox="0 0 14 11" fill="none" xmlns="http://www.w3.org/2000/svg">
<path fill-rule="evenodd" clip-rule="evenodd" d="M10.8536 5.26577C10.8242 5.22581 10.8124 5.17565 10.8208 5.1268L11.674 0.151783C11.689 0.0640971 11.7661 0 11.8551 0C11.9348 0 12.0062 0.0516599 12.0302 0.127647L13.9618 6.24351C13.9848 6.31623 13.9601 6.39556 13.9 6.44249L12.661 7.40986C12.5799 7.47324 12.4624 7.45701 12.4014 7.37398L10.8536 5.26577ZM0 8.52136C0 8.60036 0.0507964 8.67042 0.125891 8.69497L2.97163 9.62543C3.02584 9.64316 3.08523 9.63454 3.13217 9.60213L9.81797 4.98643C9.85957 4.95771 9.88741 4.91304 9.89486 4.86304L10.5847 0.234659C10.6011 0.124277 10.5156 0.0250775 10.404 0.0250775H4.65129C4.59691 0.0250775 4.54537 0.0493027 4.51067 0.0911646L0.042033 5.48189C0.014867 5.51466 0 5.55589 0 5.59846V8.52136ZM4.32705 9.90705L7.57554 10.9712C7.63088 10.9893 7.69154 10.9799 7.73886 10.946L11.4951 8.25163C11.5753 8.1941 11.5953 8.08325 11.5402 8.00133L10.2482 6.07869C10.1916 5.99446 10.0772 5.97251 9.99349 6.02982L4.32705 9.90705Z" fill="white"/>
</svg>
