<svg width="15" height="13" viewBox="0 0 15 13" fill="none" xmlns="http://www.w3.org/2000/svg">
<path fill-rule="evenodd" clip-rule="evenodd" d="M0.0511113 6.69187C-0.0170041 6.57563 -0.0170394 6.43166 0.051019 6.31538L3.63947 0.184346C3.70629 0.070168 3.82867 0 3.96096 0H11.0772C11.2101 0 11.333 0.0708405 11.3996 0.18589L14.9487 6.31692C15.0155 6.43242 15.0155 6.57486 14.9486 6.69033L11.3996 12.8143C11.333 12.9292 11.2102 13 11.0773 13H3.96084C3.82861 13 3.70629 12.9299 3.63944 12.8158L0.0511113 6.69187ZM7.5 10C9.433 10 11 8.433 11 6.5C11 4.567 9.433 3 7.5 3C5.567 3 4 4.567 4 6.5C4 8.433 5.567 10 7.5 10Z" fill="white"/>
</svg>
